<?xml version="1.0" encoding="UTF-8" ?>
<svg version="1.1" width="32" height="32" xmlns="http://www.w3.org/2000/svg" shape-rendering="crispEdges">
<rect x="13" y="1" width="6" height="2" fill="#D9D9D9" />
<rect x="10" y="2" width="3" height="2" fill="#D9D9D9" />
<rect x="19" y="2" width="3" height="2" fill="#D9D9D9" />
<rect x="8" y="3" width="2" height="2" fill="#D9D9D9" />
<rect x="13" y="3" width="1" height="1" fill="#DADADA" />
<rect x="14" y="3" width="4" height="1" fill="#DBDBDB" />
<rect x="18" y="3" width="1" height="1" fill="#DADADA" />
<rect x="22" y="3" width="2" height="2" fill="#D9D9D9" />
<rect x="7" y="4" width="1" height="3" fill="#D9D9D9" />
<rect x="10" y="4" width="1" height="1" fill="#D9D9D9" />
<rect x="11" y="4" width="1" height="1" fill="#DADADA" />
<rect x="12" y="4" width="2" height="1" fill="#DBDBDB" />
<rect x="14" y="4" width="1" height="1" fill="#DCDCDC" />
<rect x="15" y="4" width="1" height="1" fill="#DDDDDD" />
<rect x="16" y="4" width="1" height="1" fill="#DEDEDE" />
<rect x="17" y="4" width="2" height="1" fill="#DDDDDD" />
<rect x="19" y="4" width="1" height="1" fill="#DCDCDC" />
<rect x="20" y="4" width="1" height="1" fill="#DADADA" />
<rect x="21" y="4" width="1" height="1" fill="#D9D9D9" />
<rect x="24" y="4" width="1" height="2" fill="#D9D9D9" />
<rect x="6" y="5" width="1" height="2" fill="#D9D9D9" />
<rect x="8" y="5" width="1" height="1" fill="#D9D9D9" />
<rect x="9" y="5" width="1" height="1" fill="#DADADA" />
<rect x="10" y="5" width="1" height="1" fill="#DBDBDB" />
<rect x="11" y="5" width="1" height="1" fill="#DCDCDC" />
<rect x="12" y="5" width="1" height="1" fill="#DDDDDD" />
<rect x="13" y="5" width="1" height="1" fill="#DEDEDE" />
<rect x="14" y="5" width="1" height="1" fill="#DFDFDF" />
<rect x="15" y="5" width="5" height="1" fill="#E0E0E0" />
<rect x="20" y="5" width="1" height="1" fill="#DEDEDE" />
<rect x="21" y="5" width="1" height="1" fill="#DDDDDD" />
<rect x="22" y="5" width="1" height="1" fill="#DCDCDC" />
<rect x="23" y="5" width="1" height="1" fill="#DBDBDB" />
<rect x="25" y="5" width="1" height="3" fill="#D9D9D9" />
<rect x="5" y="6" width="1" height="3" fill="#D9D9D9" />
<rect x="8" y="6" width="1" height="1" fill="#DADADA" />
<rect x="9" y="6" width="1" height="1" fill="#DCDCDC" />
<rect x="10" y="6" width="1" height="1" fill="#DDDDDD" />
<rect x="11" y="6" width="1" height="1" fill="#DFDFDF" />
<rect x="12" y="6" width="1" height="1" fill="#E0E0E0" />
<rect x="13" y="6" width="1" height="1" fill="#E1E1E1" />
<rect x="14" y="6" width="1" height="1" fill="#E2E2E2" />
<rect x="15" y="6" width="3" height="1" fill="#E3E3E3" />
<rect x="18" y="6" width="2" height="1" fill="#E2E2E2" />
<rect x="20" y="6" width="2" height="1" fill="#E1E1E1" />
<rect x="22" y="6" width="1" height="1" fill="#E0E0E0" />
<rect x="23" y="6" width="1" height="1" fill="#DEDEDE" />
<rect x="24" y="6" width="1" height="1" fill="#DBDBDB" />
<rect x="26" y="6" width="1" height="3" fill="#D9D9D9" />
<rect x="4" y="7" width="1" height="3" fill="#D9D9D9" />
<rect x="6" y="7" width="2" height="1" fill="#DADADA" />
<rect x="8" y="7" width="1" height="1" fill="#DCDCDC" />
<rect x="9" y="7" width="1" height="1" fill="#DFDFDF" />
<rect x="10" y="7" width="1" height="1" fill="#E1E1E1" />
<rect x="11" y="7" width="1" height="1" fill="#E3E3E3" />
<rect x="12" y="7" width="1" height="1" fill="#E5E5E5" />
<rect x="13" y="7" width="1" height="1" fill="#E6E6E6" />
<rect x="14" y="7" width="3" height="1" fill="#E7E7E7" />
<rect x="17" y="7" width="1" height="1" fill="#E6E6E6" />
<rect x="18" y="7" width="1" height="1" fill="#E5E5E5" />
<rect x="19" y="7" width="2" height="1" fill="#E4E4E4" />
<rect x="21" y="7" width="1" height="1" fill="#E3E3E3" />
<rect x="22" y="7" width="1" height="1" fill="#E2E2E2" />
<rect x="23" y="7" width="1" height="1" fill="#E0E0E0" />
<rect x="24" y="7" width="1" height="1" fill="#DEDEDE" />
<rect x="27" y="7" width="1" height="4" fill="#D9D9D9" />
<rect x="3" y="8" width="1" height="5" fill="#D9D9D9" />
<rect x="6" y="8" width="1" height="1" fill="#DBDBDB" />
<rect x="7" y="8" width="1" height="1" fill="#DDDDDD" />
<rect x="8" y="8" width="1" height="1" fill="#DFDFDF" />
<rect x="9" y="8" width="1" height="1" fill="#E2E2E2" />
<rect x="10" y="8" width="1" height="1" fill="#E5E5E5" />
<rect x="11" y="8" width="1" height="1" fill="#E8E8E8" />
<rect x="12" y="8" width="1" height="1" fill="#EAEAEA" />
<rect x="13" y="8" width="1" height="1" fill="#ECECEC" />
<rect x="14" y="8" width="2" height="1" fill="#EDEDED" />
<rect x="16" y="8" width="1" height="1" fill="#ECECEC" />
<rect x="17" y="8" width="1" height="1" fill="#EAEAEA" />
<rect x="18" y="8" width="1" height="1" fill="#E8E8E8" />
<rect x="19" y="8" width="1" height="1" fill="#E6E6E6" />
<rect x="20" y="8" width="1" height="1" fill="#E5E5E5" />
<rect x="21" y="8" width="1" height="1" fill="#E4E4E4" />
<rect x="22" y="8" width="1" height="1" fill="#E3E3E3" />
<rect x="23" y="8" width="1" height="1" fill="#E2E2E2" />
<rect x="24" y="8" width="1" height="1" fill="#DFDFDF" />
<rect x="25" y="8" width="1" height="1" fill="#DDDDDD" />
<rect x="28" y="8" width="1" height="9" fill="#D9D9D9" />
<rect x="5" y="9" width="1" height="1" fill="#DBDBDB" />
<rect x="6" y="9" width="1" height="1" fill="#DDDDDD" />
<rect x="7" y="9" width="1" height="1" fill="#DFDFDF" />
<rect x="8" y="9" width="1" height="1" fill="#E2E2E2" />
<rect x="9" y="9" width="1" height="1" fill="#E6E6E6" />
<rect x="10" y="9" width="1" height="1" fill="#E9E9E9" />
<rect x="11" y="9" width="1" height="1" fill="#EDEDED" />
<rect x="12" y="9" width="1" height="1" fill="#F0F0F0" />
<rect x="13" y="9" width="1" height="1" fill="#F2F2F2" />
<rect x="14" y="9" width="1" height="1" fill="#F3F3F3" />
<rect x="15" y="9" width="1" height="1" fill="#F2F2F2" />
<rect x="16" y="9" width="1" height="1" fill="#F1F1F1" />
<rect x="17" y="9" width="1" height="1" fill="#EFEFEF" />
<rect x="18" y="9" width="1" height="1" fill="#EDEDED" />
<rect x="19" y="9" width="1" height="1" fill="#EAEAEA" />
<rect x="20" y="9" width="1" height="1" fill="#E7E7E7" />
<rect x="21" y="9" width="1" height="1" fill="#E5E5E5" />
<rect x="22" y="9" width="1" height="1" fill="#E4E4E4" />
<rect x="23" y="9" width="1" height="1" fill="#E3E3E3" />
<rect x="24" y="9" width="1" height="1" fill="#E1E1E1" />
<rect x="25" y="9" width="1" height="1" fill="#DFDFDF" />
<rect x="26" y="9" width="1" height="1" fill="#DCDCDC" />
<rect x="2" y="10" width="1" height="4" fill="#D9D9D9" />
<rect x="4" y="10" width="1" height="1" fill="#DADADA" />
<rect x="5" y="10" width="1" height="1" fill="#DDDDDD" />
<rect x="6" y="10" width="1" height="1" fill="#E0E0E0" />
<rect x="7" y="10" width="1" height="1" fill="#E2E2E2" />
<rect x="8" y="10" width="1" height="1" fill="#E6E6E6" />
<rect x="9" y="10" width="1" height="1" fill="#EAEAEA" />
<rect x="10" y="10" width="1" height="1" fill="#EEEEEE" />
<rect x="11" y="10" width="1" height="1" fill="#F2F2F2" />
<rect x="12" y="10" width="2" height="1" fill="#F6F6F6" />
<rect x="14" y="10" width="2" height="1" fill="#F7F7F7" />
<rect x="16" y="10" width="1" height="1" fill="#F6F6F6" />
<rect x="17" y="10" width="1" height="1" fill="#F4F4F4" />
<rect x="18" y="10" width="1" height="1" fill="#F2F2F2" />
<rect x="19" y="10" width="1" height="1" fill="#EEEEEE" />
<rect x="20" y="10" width="1" height="1" fill="#EAEAEA" />
<rect x="21" y="10" width="1" height="1" fill="#E7E7E7" />
<rect x="22" y="10" width="1" height="1" fill="#E5E5E5" />
<rect x="23" y="10" width="1" height="2" fill="#E4E4E4" />
<rect x="24" y="10" width="1" height="1" fill="#E2E2E2" />
<rect x="25" y="10" width="1" height="3" fill="#E0E0E0" />
<rect x="26" y="10" width="1" height="3" fill="#DDDDDD" />
<rect x="29" y="10" width="1" height="3" fill="#D9D9D9" />
<rect x="4" y="11" width="1" height="1" fill="#DBDBDB" />
<rect x="5" y="11" width="1" height="1" fill="#E0E0E0" />
<rect x="6" y="11" width="1" height="1" fill="#E2E2E2" />
<rect x="7" y="11" width="1" height="1" fill="#E5E5E5" />
<rect x="8" y="11" width="1" height="1" fill="#E9E9E9" />
<rect x="9" y="11" width="1" height="1" fill="#EEEEEE" />
<rect x="10" y="11" width="1" height="1" fill="#F3F3F3" />
<rect x="11" y="11" width="1" height="1" fill="#F6F6F6" />
<rect x="12" y="11" width="1" height="1" fill="#F9F9F9" />
<rect x="13" y="11" width="2" height="1" fill="#FAFAFA" />
<rect x="15" y="11" width="1" height="1" fill="#FBFBFB" />
<rect x="16" y="11" width="1" height="1" fill="#FAFAFA" />
<rect x="17" y="11" width="1" height="1" fill="#F9F9F9" />
<rect x="18" y="11" width="1" height="1" fill="#F6F6F6" />
<rect x="19" y="11" width="1" height="1" fill="#F2F2F2" />
<rect x="20" y="11" width="1" height="1" fill="#EEEEEE" />
<rect x="21" y="11" width="1" height="1" fill="#E9E9E9" />
<rect x="22" y="11" width="1" height="1" fill="#E6E6E6" />
<rect x="24" y="11" width="1" height="4" fill="#E3E3E3" />
<rect x="27" y="11" width="1" height="5" fill="#DBDBDB" />
<rect x="4" y="12" width="1" height="1" fill="#DDDDDD" />
<rect x="5" y="12" width="1" height="2" fill="#E1E1E1" />
<rect x="6" y="12" width="1" height="2" fill="#E5E5E5" />
<rect x="7" y="12" width="1" height="1" fill="#E8E8E8" />
<rect x="8" y="12" width="1" height="1" fill="#EDEDED" />
<rect x="9" y="12" width="1" height="1" fill="#F2F2F2" />
<rect x="10" y="12" width="1" height="1" fill="#F6F6F6" />
<rect x="11" y="12" width="1" height="1" fill="#F9F9F9" />
<rect x="12" y="12" width="1" height="1" fill="#FBFBFB" />
<rect x="13" y="12" width="1" height="1" fill="#FCFCFC" />
<rect x="14" y="12" width="3" height="1" fill="#FDFDFD" />
<rect x="17" y="12" width="1" height="1" fill="#FBFBFB" />
<rect x="18" y="12" width="1" height="1" fill="#FAFAFA" />
<rect x="19" y="12" width="1" height="1" fill="#F6F6F6" />
<rect x="20" y="12" width="1" height="1" fill="#F1F1F1" />
<rect x="21" y="12" width="1" height="1" fill="#EDEDED" />
<rect x="22" y="12" width="1" height="1" fill="#E8E8E8" />
<rect x="23" y="12" width="1" height="1" fill="#E5E5E5" />
<rect x="1" y="13" width="1" height="6" fill="#D9D9D9" />
<rect x="3" y="13" width="1" height="1" fill="#DBDBDB" />
<rect x="4" y="13" width="1" height="1" fill="#DEDEDE" />
<rect x="7" y="13" width="1" height="1" fill="#EAEAEA" />
<rect x="8" y="13" width="1" height="1" fill="#F0F0F0" />
<rect x="9" y="13" width="1" height="1" fill="#F4F4F4" />
<rect x="10" y="13" width="1" height="1" fill="#F9F9F9" />
<rect x="11" y="13" width="1" height="1" fill="#FBFBFB" />
<rect x="12" y="13" width="1" height="1" fill="#FDFDFD" />
<rect x="13" y="13" width="4" height="2" fill="#FEFEFE" />
<rect x="17" y="13" width="1" height="1" fill="#FDFDFD" />
<rect x="18" y="13" width="1" height="1" fill="#FBFBFB" />
<rect x="19" y="13" width="1" height="1" fill="#F9F9F9" />
<rect x="20" y="13" width="1" height="1" fill="#F5F5F5" />
<rect x="21" y="13" width="1" height="1" fill="#F0F0F0" />
<rect x="22" y="13" width="1" height="1" fill="#EBEBEB" />
<rect x="23" y="13" width="1" height="1" fill="#E6E6E6" />
<rect x="25" y="13" width="1" height="2" fill="#E1E1E1" />
<rect x="26" y="13" width="1" height="2" fill="#DEDEDE" />
<rect x="29" y="13" width="1" height="1" fill="#D9D9D9" opacity="0.886275" />
<rect x="30" y="13" width="1" height="6" fill="#D9D9D9" />
<rect x="2" y="14" width="1" height="4" fill="#DADADA" />
<rect x="3" y="14" width="1" height="2" fill="#DCDCDC" />
<rect x="4" y="14" width="1" height="5" fill="#DFDFDF" />
<rect x="5" y="14" width="1" height="2" fill="#E2E2E2" />
<rect x="6" y="14" width="1" height="1" fill="#E6E6E6" />
<rect x="7" y="14" width="1" height="1" fill="#ECECEC" />
<rect x="8" y="14" width="1" height="3" fill="#F2F2F2" />
<rect x="9" y="14" width="1" height="1" fill="#F6F6F6" />
<rect x="10" y="14" width="1" height="1" fill="#FAFAFA" />
<rect x="11" y="14" width="1" height="3" fill="#FDFDFD" />
<rect x="12" y="14" width="1" height="3" fill="#FEFEFE" />
<rect x="17" y="14" width="1" height="4" fill="#FEFEFE" />
<rect x="18" y="14" width="1" height="1" fill="#FDFDFD" />
<rect x="19" y="14" width="1" height="1" fill="#FAFAFA" />
<rect x="20" y="14" width="1" height="1" fill="#F7F7F7" />
<rect x="21" y="14" width="1" height="1" fill="#F3F3F3" />
<rect x="22" y="14" width="1" height="1" fill="#ECECEC" />
<rect x="23" y="14" width="1" height="5" fill="#E7E7E7" />
<rect x="29" y="14" width="1" height="8" fill="#D9D9D9" />
<rect x="6" y="15" width="1" height="2" fill="#E7E7E7" />
<rect x="7" y="15" width="1" height="1" fill="#EDEDED" />
<rect x="9" y="15" width="1" height="2" fill="#F7F7F7" />
<rect x="10" y="15" width="1" height="1" fill="#FBFBFB" />
<rect x="13" y="15" width="1" height="4" fill="#FEFEFE" />
<rect x="14" y="15" width="2" height="2" fill="#FFFFFF" />
<rect x="16" y="15" width="1" height="4" fill="#FEFEFE" />
<rect x="18" y="15" width="1" height="2" fill="#FEFEFE" />
<rect x="19" y="15" width="1" height="2" fill="#FCFCFC" />
<rect x="20" y="15" width="1" height="2" fill="#F8F8F8" />
<rect x="21" y="15" width="1" height="2" fill="#F4F4F4" />
<rect x="22" y="15" width="1" height="3" fill="#EDEDED" />
<rect x="24" y="15" width="1" height="4" fill="#E4E4E4" />
<rect x="25" y="15" width="1" height="5" fill="#E2E2E2" />
<rect x="26" y="15" width="1" height="2" fill="#DFDFDF" />
<rect x="3" y="16" width="1" height="1" fill="#DDDDDD" />
<rect x="5" y="16" width="1" height="1" fill="#E3E3E3" />
<rect x="7" y="16" width="1" height="1" fill="#ECECEC" />
<rect x="10" y="16" width="1" height="2" fill="#FAFAFA" />
<rect x="27" y="16" width="1" height="4" fill="#DCDCDC" />
<rect x="3" y="17" width="1" height="2" fill="#DCDCDC" />
<rect x="5" y="17" width="1" height="3" fill="#E2E2E2" />
<rect x="6" y="17" width="1" height="2" fill="#E6E6E6" />
<rect x="7" y="17" width="1" height="1" fill="#EBEBEB" />
<rect x="8" y="17" width="1" height="1" fill="#F0F0F0" />
<rect x="9" y="17" width="1" height="1" fill="#F5F5F5" />
<rect x="11" y="17" width="1" height="1" fill="#FCFCFC" />
<rect x="12" y="17" width="1" height="2" fill="#FDFDFD" />
<rect x="14" y="17" width="1" height="2" fill="#FEFEFE" />
<rect x="15" y="17" width="1" height="1" fill="#FFFFFF" />
<rect x="18" y="17" width="1" height="1" fill="#FDFDFD" />
<rect x="19" y="17" width="1" height="1" fill="#FBFBFB" />
<rect x="20" y="17" width="1" height="1" fill="#F7F7F7" />
<rect x="21" y="17" width="1" height="1" fill="#F3F3F3" />
<rect x="26" y="17" width="1" height="2" fill="#E0E0E0" />
<rect x="28" y="17" width="1" height="3" fill="#DADADA" />
<rect x="2" y="18" width="1" height="4" fill="#D9D9D9" />
<rect x="7" y="18" width="1" height="1" fill="#E9E9E9" />
<rect x="8" y="18" width="1" height="1" fill="#EEEEEE" />
<rect x="9" y="18" width="1" height="1" fill="#F3F3F3" />
<rect x="10" y="18" width="1" height="1" fill="#F7F7F7" />
<rect x="11" y="18" width="1" height="1" fill="#FAFAFA" />
<rect x="15" y="18" width="1" height="1" fill="#FEFEFE" />
<rect x="17" y="18" width="1" height="1" fill="#FDFDFD" />
<rect x="18" y="18" width="1" height="1" fill="#FCFCFC" />
<rect x="19" y="18" width="1" height="1" fill="#FAFAFA" />
<rect x="20" y="18" width="1" height="1" fill="#F6F6F6" />
<rect x="21" y="18" width="1" height="1" fill="#F2F2F2" />
<rect x="22" y="18" width="1" height="1" fill="#ECECEC" />
<rect x="3" y="19" width="1" height="2" fill="#DBDBDB" />
<rect x="4" y="19" width="1" height="1" fill="#DEDEDE" />
<rect x="6" y="19" width="1" height="1" fill="#E4E4E4" />
<rect x="7" y="19" width="1" height="1" fill="#E8E8E8" />
<rect x="8" y="19" width="1" height="1" fill="#ECECEC" />
<rect x="9" y="19" width="1" height="1" fill="#F0F0F0" />
<rect x="10" y="19" width="1" height="1" fill="#F5F5F5" />
<rect x="11" y="19" width="1" height="1" fill="#F9F9F9" />
<rect x="12" y="19" width="1" height="1" fill="#FBFBFB" />
<rect x="13" y="19" width="4" height="1" fill="#FDFDFD" />
<rect x="17" y="19" width="1" height="1" fill="#FCFCFC" />
<rect x="18" y="19" width="1" height="1" fill="#FAFAFA" />
<rect x="19" y="19" width="1" height="1" fill="#F8F8F8" />
<rect x="20" y="19" width="1" height="1" fill="#F4F4F4" />
<rect x="21" y="19" width="1" height="1" fill="#EFEFEF" />
<rect x="22" y="19" width="1" height="1" fill="#EAEAEA" />
<rect x="23" y="19" width="1" height="1" fill="#E6E6E6" />
<rect x="24" y="19" width="1" height="2" fill="#E3E3E3" />
<rect x="26" y="19" width="1" height="1" fill="#DFDFDF" />
<rect x="4" y="20" width="1" height="1" fill="#DDDDDD" />
<rect x="5" y="20" width="1" height="1" fill="#E0E0E0" />
<rect x="6" y="20" width="1" height="1" fill="#E3E3E3" />
<rect x="7" y="20" width="1" height="1" fill="#E5E5E5" />
<rect x="8" y="20" width="1" height="1" fill="#E9E9E9" />
<rect x="9" y="20" width="1" height="1" fill="#EDEDED" />
<rect x="10" y="20" width="1" height="1" fill="#F1F1F1" />
<rect x="11" y="20" width="1" height="1" fill="#F6F6F6" />
<rect x="12" y="20" width="1" height="1" fill="#F9F9F9" />
<rect x="13" y="20" width="1" height="1" fill="#FAFAFA" />
<rect x="14" y="20" width="2" height="1" fill="#FBFBFB" />
<rect x="16" y="20" width="2" height="1" fill="#FAFAFA" />
<rect x="18" y="20" width="1" height="1" fill="#F8F8F8" />
<rect x="19" y="20" width="1" height="1" fill="#F5F5F5" />
<rect x="20" y="20" width="1" height="1" fill="#F0F0F0" />
<rect x="21" y="20" width="1" height="1" fill="#ECECEC" />
<rect x="22" y="20" width="1" height="1" fill="#E8E8E8" />
<rect x="23" y="20" width="1" height="1" fill="#E5E5E5" />
<rect x="25" y="20" width="1" height="1" fill="#E1E1E1" />
<rect x="26" y="20" width="1" height="1" fill="#DDDDDD" />
<rect x="27" y="20" width="1" height="1" fill="#DBDBDB" />
<rect x="28" y="20" width="1" height="4" fill="#D9D9D9" />
<rect x="3" y="21" width="1" height="3" fill="#D9D9D9" />
<rect x="4" y="21" width="1" height="1" fill="#DBDBDB" />
<rect x="5" y="21" width="1" height="1" fill="#DEDEDE" />
<rect x="6" y="21" width="1" height="1" fill="#E1E1E1" />
<rect x="7" y="21" width="1" height="1" fill="#E4E4E4" />
<rect x="8" y="21" width="1" height="1" fill="#E6E6E6" />
<rect x="9" y="21" width="1" height="1" fill="#E9E9E9" />
<rect x="10" y="21" width="1" height="1" fill="#EDEDED" />
<rect x="11" y="21" width="1" height="1" fill="#F1F1F1" />
<rect x="12" y="21" width="1" height="1" fill="#F4F4F4" />
<rect x="13" y="21" width="1" height="1" fill="#F6F6F6" />
<rect x="14" y="21" width="3" height="1" fill="#F7F7F7" />
<rect x="17" y="21" width="1" height="1" fill="#F6F6F6" />
<rect x="18" y="21" width="1" height="1" fill="#F4F4F4" />
<rect x="19" y="21" width="1" height="1" fill="#F1F1F1" />
<rect x="20" y="21" width="1" height="1" fill="#EDEDED" />
<rect x="21" y="21" width="1" height="1" fill="#E9E9E9" />
<rect x="22" y="21" width="1" height="1" fill="#E6E6E6" />
<rect x="23" y="21" width="1" height="1" fill="#E4E4E4" />
<rect x="24" y="21" width="1" height="1" fill="#E2E2E2" />
<rect x="25" y="21" width="1" height="1" fill="#DFDFDF" />
<rect x="26" y="21" width="1" height="1" fill="#DCDCDC" />
<rect x="27" y="21" width="1" height="4" fill="#D9D9D9" />
<rect x="4" y="22" width="1" height="1" fill="#DADADA" />
<rect x="5" y="22" width="1" height="1" fill="#DCDCDC" />
<rect x="6" y="22" width="1" height="1" fill="#DFDFDF" />
<rect x="7" y="22" width="1" height="1" fill="#E2E2E2" />
<rect x="8" y="22" width="1" height="1" fill="#E4E4E4" />
<rect x="9" y="22" width="1" height="1" fill="#E6E6E6" />
<rect x="10" y="22" width="1" height="1" fill="#E9E9E9" />
<rect x="11" y="22" width="1" height="1" fill="#ECECEC" />
<rect x="12" y="22" width="1" height="1" fill="#EFEFEF" />
<rect x="13" y="22" width="1" height="1" fill="#F1F1F1" />
<rect x="14" y="22" width="2" height="1" fill="#F2F2F2" />
<rect x="16" y="22" width="1" height="1" fill="#F3F3F3" />
<rect x="17" y="22" width="1" height="1" fill="#F2F2F2" />
<rect x="18" y="22" width="1" height="1" fill="#F0F0F0" />
<rect x="19" y="22" width="1" height="1" fill="#EDEDED" />
<rect x="20" y="22" width="1" height="1" fill="#E9E9E9" />
<rect x="21" y="22" width="1" height="1" fill="#E6E6E6" />
<rect x="22" y="22" width="1" height="1" fill="#E4E4E4" />
<rect x="23" y="22" width="1" height="1" fill="#E2E2E2" />
<rect x="24" y="22" width="1" height="1" fill="#E0E0E0" />
<rect x="25" y="22" width="1" height="1" fill="#DDDDDD" />
<rect x="26" y="22" width="1" height="1" fill="#DADADA" />
<rect x="4" y="23" width="1" height="1" fill="#D9D9D9" opacity="0.886275" />
<rect x="5" y="23" width="1" height="1" fill="#DADADA" />
<rect x="6" y="23" width="1" height="1" fill="#DDDDDD" />
<rect x="7" y="23" width="1" height="1" fill="#E0E0E0" />
<rect x="8" y="23" width="1" height="1" fill="#E2E2E2" />
<rect x="9" y="23" width="1" height="1" fill="#E4E4E4" />
<rect x="10" y="23" width="1" height="1" fill="#E6E6E6" />
<rect x="11" y="23" width="1" height="1" fill="#E8E8E8" />
<rect x="12" y="23" width="1" height="1" fill="#EAEAEA" />
<rect x="13" y="23" width="1" height="1" fill="#ECECEC" />
<rect x="14" y="23" width="3" height="1" fill="#EDEDED" />
<rect x="17" y="23" width="1" height="1" fill="#ECECEC" />
<rect x="18" y="23" width="1" height="1" fill="#EAEAEA" />
<rect x="19" y="23" width="1" height="1" fill="#E8E8E8" />
<rect x="20" y="23" width="1" height="1" fill="#E6E6E6" />
<rect x="21" y="23" width="1" height="1" fill="#E4E4E4" />
<rect x="22" y="23" width="1" height="1" fill="#E2E2E2" />
<rect x="23" y="23" width="1" height="1" fill="#E1E1E1" />
<rect x="24" y="23" width="1" height="1" fill="#DDDDDD" />
<rect x="25" y="23" width="1" height="1" fill="#DADADA" />
<rect x="26" y="23" width="1" height="3" fill="#D9D9D9" />
<rect x="4" y="24" width="1" height="1" fill="#D9D9D9" />
<rect x="5" y="24" width="1" height="1" fill="#D9D9D9" opacity="0.874510" />
<rect x="6" y="24" width="1" height="1" fill="#DBDBDB" opacity="0.984314" />
<rect x="7" y="24" width="1" height="1" fill="#DDDDDD" opacity="0.984314" />
<rect x="8" y="24" width="1" height="1" fill="#E0E0E0" />
<rect x="9" y="24" width="1" height="1" fill="#E2E2E2" />
<rect x="10" y="24" width="1" height="1" fill="#E3E3E3" />
<rect x="11" y="24" width="2" height="1" fill="#E5E5E5" />
<rect x="13" y="24" width="5" height="1" fill="#E7E7E7" />
<rect x="18" y="24" width="1" height="1" fill="#E5E5E5" />
<rect x="19" y="24" width="1" height="1" fill="#E4E4E4" />
<rect x="20" y="24" width="2" height="1" fill="#E3E3E3" />
<rect x="22" y="24" width="1" height="1" fill="#E1E1E1" />
<rect x="23" y="24" width="1" height="1" fill="#DDDDDD" />
<rect x="24" y="24" width="1" height="1" fill="#DADADA" />
<rect x="25" y="24" width="1" height="3" fill="#D9D9D9" />
<rect x="5" y="25" width="1" height="1" fill="#D9D9D9" />
<rect x="6" y="25" width="1" height="1" fill="#D9D9D9" opacity="0.862745" />
<rect x="7" y="25" width="1" height="1" fill="#DBDBDB" opacity="0.972549" />
<rect x="8" y="25" width="1" height="1" fill="#DDDDDD" opacity="0.984314" />
<rect x="9" y="25" width="1" height="1" fill="#DFDFDF" />
<rect x="10" y="25" width="1" height="1" fill="#E1E1E1" />
<rect x="11" y="25" width="2" height="1" fill="#E2E2E2" />
<rect x="13" y="25" width="4" height="1" fill="#E3E3E3" />
<rect x="17" y="25" width="2" height="1" fill="#E2E2E2" />
<rect x="19" y="25" width="2" height="1" fill="#E1E1E1" />
<rect x="21" y="25" width="1" height="1" fill="#DFDFDF" />
<rect x="22" y="25" width="1" height="1" fill="#DDDDDD" />
<rect x="23" y="25" width="1" height="1" fill="#DADADA" />
<rect x="24" y="25" width="1" height="3" fill="#D9D9D9" />
<rect x="6" y="26" width="1" height="1" fill="#D9D9D9" />
<rect x="7" y="26" width="1" height="1" fill="#D9D9D9" opacity="0.886275" />
<rect x="8" y="26" width="1" height="1" fill="#DADADA" />
<rect x="9" y="26" width="1" height="1" fill="#DBDBDB" />
<rect x="10" y="26" width="1" height="1" fill="#DDDDDD" />
<rect x="11" y="26" width="1" height="1" fill="#DEDEDE" />
<rect x="12" y="26" width="7" height="1" fill="#DFDFDF" />
<rect x="19" y="26" width="1" height="1" fill="#DEDEDE" />
<rect x="20" y="26" width="1" height="1" fill="#DDDDDD" />
<rect x="21" y="26" width="1" height="1" fill="#DCDCDC" />
<rect x="22" y="26" width="1" height="1" fill="#DADADA" />
<rect x="23" y="26" width="1" height="3" fill="#D9D9D9" />
<rect x="7" y="27" width="1" height="1" fill="#D9D9D9" />
<rect x="8" y="27" width="1" height="1" fill="#D9D9D9" opacity="0.886275" />
<rect x="9" y="27" width="2" height="2" fill="#D9D9D9" />
<rect x="11" y="27" width="1" height="1" fill="#DADADA" />
<rect x="12" y="27" width="7" height="1" fill="#DCDCDC" />
<rect x="19" y="27" width="1" height="1" fill="#DBDBDB" />
<rect x="20" y="27" width="2" height="1" fill="#DADADA" />
<rect x="22" y="27" width="1" height="2" fill="#D9D9D9" />
<rect x="8" y="28" width="1" height="1" fill="#D9D9D9" />
<rect x="11" y="28" width="2" height="2" fill="#D9D9D9" />
<rect x="13" y="28" width="7" height="1" fill="#DADADA" />
<rect x="20" y="28" width="2" height="2" fill="#D9D9D9" />
<rect x="10" y="29" width="1" height="1" fill="#D9D9D9" />
<rect x="13" y="29" width="7" height="1" fill="#D9D9D9" />
<rect x="13" y="30" width="6" height="1" fill="#D9D9D9" />
</svg>