<?xml version="1.0" encoding="UTF-8" ?>
<svg version="1.1" width="32" height="32" xmlns="http://www.w3.org/2000/svg" shape-rendering="crispEdges">
<rect x="6" y="1" width="20" height="1" fill="#000000" />
<rect x="6" y="2" width="1" height="1" fill="#000000" />
<rect x="25" y="2" width="1" height="1" fill="#000000" />
<rect x="7" y="3" width="1" height="1" fill="#000000" />
<rect x="24" y="3" width="1" height="1" fill="#000000" />
<rect x="6" y="4" width="1" height="1" fill="#000000" />
<rect x="25" y="4" width="1" height="1" fill="#000000" />
<rect x="5" y="5" width="1" height="1" fill="#000000" />
<rect x="26" y="5" width="1" height="1" fill="#000000" />
<rect x="4" y="6" width="1" height="1" fill="#000000" />
<rect x="27" y="6" width="1" height="1" fill="#000000" />
<rect x="3" y="7" width="1" height="21" fill="#000000" />
<rect x="28" y="7" width="1" height="21" fill="#000000" />
<rect x="4" y="28" width="1" height="1" fill="#000000" />
<rect x="27" y="28" width="1" height="1" fill="#000000" />
<rect x="5" y="29" width="1" height="1" fill="#000000" />
<rect x="26" y="29" width="1" height="1" fill="#000000" />
<rect x="6" y="30" width="20" height="1" fill="#000000" />
</svg>