<?xml version="1.0" encoding="UTF-8" ?>
<svg version="1.1" width="32" height="32" xmlns="http://www.w3.org/2000/svg" shape-rendering="crispEdges">
<rect x="13" y="1" width="6" height="1" fill="#000000" />
<rect x="10" y="2" width="4" height="1" fill="#000000" />
<rect x="18" y="2" width="4" height="1" fill="#000000" />
<rect x="8" y="3" width="3" height="1" fill="#000000" />
<rect x="21" y="3" width="3" height="1" fill="#000000" />
<rect x="7" y="4" width="2" height="1" fill="#000000" />
<rect x="23" y="4" width="2" height="1" fill="#000000" />
<rect x="6" y="5" width="2" height="1" fill="#000000" />
<rect x="24" y="5" width="2" height="1" fill="#000000" />
<rect x="5" y="6" width="2" height="1" fill="#000000" />
<rect x="25" y="6" width="2" height="1" fill="#000000" />
<rect x="4" y="7" width="2" height="1" fill="#000000" />
<rect x="26" y="7" width="2" height="1" fill="#000000" />
<rect x="3" y="8" width="2" height="1" fill="#000000" />
<rect x="27" y="8" width="2" height="1" fill="#000000" />
<rect x="3" y="9" width="1" height="2" fill="#000000" />
<rect x="28" y="9" width="1" height="2" fill="#000000" />
<rect x="2" y="10" width="1" height="4" fill="#000000" />
<rect x="29" y="10" width="1" height="4" fill="#000000" />
<rect x="1" y="13" width="1" height="6" fill="#000000" />
<rect x="30" y="13" width="1" height="6" fill="#000000" />
<rect x="2" y="18" width="1" height="4" fill="#000000" />
<rect x="29" y="18" width="1" height="4" fill="#000000" />
<rect x="3" y="21" width="1" height="3" fill="#000000" />
<rect x="28" y="21" width="1" height="3" fill="#000000" />
<rect x="4" y="23" width="1" height="2" fill="#000000" />
<rect x="27" y="23" width="1" height="2" fill="#000000" />
<rect x="5" y="24" width="1" height="2" fill="#000000" />
<rect x="26" y="24" width="1" height="2" fill="#000000" />
<rect x="6" y="25" width="1" height="2" fill="#000000" />
<rect x="25" y="25" width="1" height="2" fill="#000000" />
<rect x="7" y="26" width="1" height="2" fill="#000000" />
<rect x="24" y="26" width="1" height="2" fill="#000000" />
<rect x="8" y="27" width="1" height="2" fill="#000000" />
<rect x="23" y="27" width="1" height="2" fill="#000000" />
<rect x="9" y="28" width="2" height="1" fill="#000000" />
<rect x="21" y="28" width="2" height="1" fill="#000000" />
<rect x="10" y="29" width="4" height="1" fill="#000000" />
<rect x="18" y="29" width="4" height="1" fill="#000000" />
<rect x="13" y="30" width="6" height="1" fill="#000000" />
</svg>